<?xml version="1.0" encoding="UTF-8" standalone="no"?>
<!-- Created with Inkscape (http://www.inkscape.org/) -->

<svg
   xmlns:dc="http://purl.org/dc/elements/1.1/"
   xmlns:cc="http://creativecommons.org/ns#"
   xmlns:rdf="http://www.w3.org/1999/02/22-rdf-syntax-ns#"
   xmlns:svg="http://www.w3.org/2000/svg"
   xmlns="http://www.w3.org/2000/svg"
   xmlns:sodipodi="http://sodipodi.sourceforge.net/DTD/sodipodi-0.dtd"
   xmlns:inkscape="http://www.inkscape.org/namespaces/inkscape"
   width="446"
   height="631"
   viewBox="0 0 446 631.00001"
   id="svg2"
   version="1.1"
   inkscape:version="0.91 r13725"
   sodipodi:docname="tower_start_ghost_compressed.svg">
  <defs
     id="defs4" />
  <sodipodi:namedview
     id="base"
     pagecolor="#ffffff"
     bordercolor="#666666"
     borderopacity="1.0"
     inkscape:pageopacity="0.0"
     inkscape:pageshadow="2"
     inkscape:zoom="0.7"
     inkscape:cx="215.72895"
     inkscape:cy="302.90863"
     inkscape:document-units="px"
     inkscape:current-layer="layer1"
     showgrid="false"
     inkscape:window-width="1366"
     inkscape:window-height="706"
     inkscape:window-x="-8"
     inkscape:window-y="-8"
     inkscape:window-maximized="1"
     showguides="false"
     units="px" />
  <metadata
     id="metadata7">
    <rdf:RDF>
      <cc:Work
         rdf:about="">
        <dc:format>image/svg+xml</dc:format>
        <dc:type
           rdf:resource="http://purl.org/dc/dcmitype/StillImage" />
        <dc:title></dc:title>
      </cc:Work>
    </rdf:RDF>
  </metadata>
  <g
     inkscape:label="Ebene 1"
     inkscape:groupmode="layer"
     id="layer1"
     transform="translate(0,-421.36216)">
    <g
       id="g4889"
       transform="matrix(0.60058025,0,0,0.60038985,-1.6073533e-7,421.34195)">
      <g
         id="g4164">
        <rect
           style="opacity:1;fill:#e3dbdb;fill-opacity:1;stroke:none;stroke-width:2.45881462;stroke-miterlimit:4;stroke-dasharray:none;stroke-opacity:1"
           id="rect4136"
           width="742.89832"
           height="1050.6328"
           x="2.8365502"
           y="2.0965104" />
        <rect
           style="opacity:1;fill:#c8b7b7;fill-opacity:1;stroke:none;stroke-width:2.5;stroke-miterlimit:4;stroke-dasharray:none;stroke-opacity:1"
           id="rect4138"
           width="242.43661"
           height="220.21326"
           x="4.0406098"
           y="830.12866" />
        <rect
           style="opacity:1;fill:#c8b7b7;fill-opacity:1;stroke:none;stroke-width:2.5;stroke-miterlimit:4;stroke-dasharray:none;stroke-opacity:1"
           id="rect4140"
           width="193.9493"
           height="169.70563"
           x="250.51782"
           y="884.67688" />
        <rect
           style="opacity:1;fill:#c8b7b7;fill-opacity:1;stroke:none;stroke-width:2.5;stroke-miterlimit:4;stroke-dasharray:none;stroke-opacity:1"
           id="rect4142"
           width="131.31982"
           height="256.57874"
           x="450.52805"
           y="795.78345" />
        <rect
           style="opacity:1;fill:#c8b7b7;fill-opacity:1;stroke:none;stroke-width:2.5;stroke-miterlimit:4;stroke-dasharray:none;stroke-opacity:1"
           id="rect4144"
           width="157.5838"
           height="127.27922"
           x="585.88849"
           y="923.06268" />
        <rect
           style="opacity:1;fill:#c8b7b7;fill-opacity:1;stroke:none;stroke-width:2.5;stroke-miterlimit:4;stroke-dasharray:none;stroke-opacity:1"
           id="rect4146"
           width="155.56349"
           height="117.1777"
           x="2.0203052"
           y="706.89001" />
        <rect
           style="opacity:1;fill:#c8b7b7;fill-opacity:1;stroke:none;stroke-width:2.5;stroke-miterlimit:4;stroke-dasharray:none;stroke-opacity:1"
           id="rect4148"
           width="90.913727"
           height="113.13708"
           x="165.66502"
           y="706.89001" />
        <rect
           style="opacity:1;fill:#c8b7b7;fill-opacity:1;stroke:none;stroke-width:2.5;stroke-miterlimit:4;stroke-dasharray:none;stroke-opacity:1"
           id="rect4150"
           width="101.01525"
           height="173.74623"
           x="250.51784"
           y="706.89008" />
        <rect
           style="opacity:1;fill:#c8b7b7;fill-opacity:1;stroke:none;stroke-width:2.5;stroke-miterlimit:4;stroke-dasharray:none;stroke-opacity:1"
           id="rect4152"
           width="86.873116"
           height="157.5838"
           x="359.61432"
           y="723.05249" />
        <rect
           style="opacity:1;fill:#c8b7b7;fill-opacity:1;stroke:none;stroke-width:2.5;stroke-miterlimit:4;stroke-dasharray:none;stroke-opacity:1"
           id="rect4154"
           width="54.548237"
           height="68.690376"
           x="444.46713"
           y="723.05249" />
        <rect
           style="opacity:1;fill:#c8b7b7;fill-opacity:1;stroke:none;stroke-width:2.5;stroke-miterlimit:4;stroke-dasharray:none;stroke-opacity:1"
           id="rect4156"
           width="76.771591"
           height="62.629459"
           x="505.07626"
           y="725.07275" />
        <rect
           style="opacity:1;fill:#c8b7b7;fill-opacity:1;stroke:none;stroke-width:2.5;stroke-miterlimit:4;stroke-dasharray:none;stroke-opacity:1"
           id="rect4158"
           width="105.05586"
           height="96.974648"
           x="583.86816"
           y="820.0271" />
        <rect
           style="opacity:1;fill:#c8b7b7;fill-opacity:1;stroke:none;stroke-width:2.5;stroke-miterlimit:4;stroke-dasharray:none;stroke-opacity:1"
           id="rect4160"
           width="56.568542"
           height="159.6041"
           x="690.94434"
           y="761.43829" />
        <rect
           style="opacity:1;fill:#c8b7b7;fill-opacity:1;stroke:none;stroke-width:2.5;stroke-miterlimit:4;stroke-dasharray:none;stroke-opacity:1"
           id="rect4162"
           width="98.994949"
           height="143.44167"
           x="587.90881"
           y="674.56512" />
      </g>
      <rect
         y="514.96106"
         x="2.0203049"
         height="185.86807"
         width="109.09647"
         id="rect4180"
         style="opacity:1;fill:#c8b7b7;fill-opacity:1;stroke:none;stroke-width:2.5;stroke-miterlimit:4;stroke-dasharray:none;stroke-opacity:1" />
      <rect
         y="603.85449"
         x="115.15739"
         height="98.994949"
         width="145.46196"
         id="rect4182"
         style="opacity:1;fill:#c8b7b7;fill-opacity:1;stroke:none;stroke-width:2.5;stroke-miterlimit:4;stroke-dasharray:none;stroke-opacity:1" />
      <rect
         y="615.97626"
         x="264.65997"
         height="84.852814"
         width="92.934029"
         id="rect4184"
         style="opacity:1;fill:#c8b7b7;fill-opacity:1;stroke:none;stroke-width:2.5;stroke-miterlimit:4;stroke-dasharray:none;stroke-opacity:1" />
      <rect
         y="615.97632"
         x="353.55341"
         height="101.01525"
         width="86.873116"
         id="rect4186"
         style="opacity:1;fill:#c8b7b7;fill-opacity:1;stroke:none;stroke-width:2.5;stroke-miterlimit:4;stroke-dasharray:none;stroke-opacity:1" />
      <rect
         y="617.99658"
         x="448.50772"
         height="101.01525"
         width="133.34013"
         id="rect4188"
         style="opacity:1;fill:#c8b7b7;fill-opacity:1;stroke:none;stroke-width:2.5;stroke-miterlimit:4;stroke-dasharray:none;stroke-opacity:1" />
      <rect
         y="611.93567"
         x="589.92908"
         height="56.568542"
         width="151.52289"
         id="rect4190"
         style="opacity:1;fill:#c8b7b7;fill-opacity:1;stroke:none;stroke-width:2.5;stroke-miterlimit:4;stroke-dasharray:none;stroke-opacity:1" />
      <rect
         y="666.48389"
         x="692.9646"
         height="90.913727"
         width="48.487324"
         id="rect4192"
         style="opacity:1;fill:#c8b7b7;fill-opacity:1;stroke:none;stroke-width:2.5;stroke-miterlimit:4;stroke-dasharray:none;stroke-opacity:1" />
      <rect
         y="468.49405"
         x="119.198"
         height="131.31982"
         width="72.73098"
         id="rect4194"
         style="opacity:1;fill:#c8b7b7;fill-opacity:1;stroke:none;stroke-width:2.5;stroke-miterlimit:4;stroke-dasharray:none;stroke-opacity:1" />
      <rect
         y="525.06256"
         x="195.9696"
         height="70.710678"
         width="74.751289"
         id="rect4196"
         style="opacity:1;fill:#c8b7b7;fill-opacity:1;stroke:none;stroke-width:2.5;stroke-miterlimit:4;stroke-dasharray:none;stroke-opacity:1" />
      <rect
         y="525.06256"
         x="264.65997"
         height="86.873116"
         width="92.934036"
         id="rect4198"
         style="opacity:1;fill:#c8b7b7;fill-opacity:1;stroke:none;stroke-width:2.5;stroke-miterlimit:4;stroke-dasharray:none;stroke-opacity:1" />
      <rect
         y="476.57526"
         x="361.63461"
         height="133.34013"
         width="137.38075"
         id="rect4200"
         style="opacity:1;fill:#c8b7b7;fill-opacity:1;stroke:none;stroke-width:2.5;stroke-miterlimit:4;stroke-dasharray:none;stroke-opacity:1" />
      <rect
         y="508.90015"
         x="503.05597"
         height="98.994949"
         width="141.42136"
         id="rect4202"
         style="opacity:1;fill:#c8b7b7;fill-opacity:1;stroke:none;stroke-width:2.5;stroke-miterlimit:4;stroke-dasharray:none;stroke-opacity:1" />
      <rect
         y="405.86456"
         x="648.51794"
         height="200.01021"
         width="92.934029"
         id="rect4204"
         style="opacity:1;fill:#c8b7b7;fill-opacity:1;stroke:none;stroke-width:2.5;stroke-miterlimit:4;stroke-dasharray:none;stroke-opacity:1" />
      <rect
         y="365.45847"
         x="2.0203052"
         height="143.44167"
         width="113.13708"
         id="rect4206"
         style="opacity:1;fill:#c8b7b7;fill-opacity:1;stroke:none;stroke-width:2.5;stroke-miterlimit:4;stroke-dasharray:none;stroke-opacity:1" />
      <rect
         y="401.82397"
         x="121.21831"
         height="64.649765"
         width="82.832512"
         id="rect4208"
         style="opacity:1;fill:#c8b7b7;fill-opacity:1;stroke:none;stroke-width:2.5;stroke-miterlimit:4;stroke-dasharray:none;stroke-opacity:1" />
      <rect
         y="402.01639"
         x="197.9899"
         height="118.81318"
         width="129.29953"
         id="rect4210"
         style="opacity:1;fill:#c8b7b7;fill-opacity:1;stroke:none;stroke-width:2.5;stroke-miterlimit:4;stroke-dasharray:none;stroke-opacity:1" />
      <rect
         y="359.39755"
         x="333.35037"
         height="159.6041"
         width="24.243662"
         id="rect4212"
         style="opacity:1;fill:#c8b7b7;fill-opacity:1;stroke:none;stroke-width:2.5;stroke-miterlimit:4;stroke-dasharray:none;stroke-opacity:1" />
      <rect
         y="359.39755"
         x="345.47217"
         height="111.11678"
         width="155.56349"
         id="rect4214"
         style="opacity:1;fill:#c8b7b7;fill-opacity:1;stroke:none;stroke-width:2.5;stroke-miterlimit:4;stroke-dasharray:none;stroke-opacity:1" />
      <rect
         y="430.10825"
         x="505.07626"
         height="74.751289"
         width="139.40105"
         id="rect4216"
         style="opacity:1;fill:#c8b7b7;fill-opacity:1;stroke:none;stroke-width:2.5;stroke-miterlimit:4;stroke-dasharray:none;stroke-opacity:1" />
      <rect
         y="240.19955"
         x="2.0203049"
         height="119.198"
         width="135.36044"
         id="rect4218"
         style="opacity:1;fill:#c8b7b7;fill-opacity:1;stroke:none;stroke-width:2.5;stroke-miterlimit:4;stroke-dasharray:none;stroke-opacity:1" />
      <rect
         y="240.19955"
         x="119.198"
         height="157.5838"
         width="109.09647"
         id="rect4220"
         style="opacity:1;fill:#c8b7b7;fill-opacity:1;stroke:none;stroke-width:2.5;stroke-miterlimit:4;stroke-dasharray:none;stroke-opacity:1" />
      <rect
         y="240.19954"
         x="232.33508"
         height="155.56349"
         width="96.974648"
         id="rect4222"
         style="opacity:1;fill:#c8b7b7;fill-opacity:1;stroke:none;stroke-width:2.5;stroke-miterlimit:4;stroke-dasharray:none;stroke-opacity:1" />
      <rect
         y="240.19957"
         x="319.20819"
         height="113.13708"
         width="129.29953"
         id="rect4224"
         style="opacity:1;fill:#c8b7b7;fill-opacity:1;stroke:none;stroke-width:2.5;stroke-miterlimit:4;stroke-dasharray:none;stroke-opacity:1" />
      <rect
         y="270.50412"
         x="454.56863"
         height="80.812202"
         width="58.588848"
         id="rect4226"
         style="opacity:1;fill:#c8b7b7;fill-opacity:1;stroke:none;stroke-width:2.5;stroke-miterlimit:4;stroke-dasharray:none;stroke-opacity:1" />
      <rect
         y="270.50412"
         x="507.09656"
         height="153.54318"
         width="92.934029"
         id="rect4228"
         style="opacity:1;fill:#c8b7b7;fill-opacity:1;stroke:none;stroke-width:2.5;stroke-miterlimit:4;stroke-dasharray:none;stroke-opacity:1" />
      <rect
         y="359.39755"
         x="604.07123"
         height="66.670067"
         width="38.385796"
         id="rect4230"
         style="opacity:1;fill:#c8b7b7;fill-opacity:1;stroke:none;stroke-width:2.5;stroke-miterlimit:4;stroke-dasharray:none;stroke-opacity:1" />
      <rect
         y="359.39755"
         x="640.43671"
         height="40.406101"
         width="103.03556"
         id="rect4232"
         style="opacity:1;fill:#c8b7b7;fill-opacity:1;stroke:none;stroke-width:2.5;stroke-miterlimit:4;stroke-dasharray:none;stroke-opacity:1" />
      <rect
         y="118.98125"
         x="0"
         height="115.15739"
         width="121.21831"
         id="rect4234"
         style="opacity:1;fill:#c8b7b7;fill-opacity:1;stroke:none;stroke-width:2.5;stroke-miterlimit:4;stroke-dasharray:none;stroke-opacity:1" />
      <rect
         y="155.34674"
         x="125.2589"
         height="80.812202"
         width="185.86807"
         id="rect4236"
         style="opacity:1;fill:#c8b7b7;fill-opacity:1;stroke:none;stroke-width:2.5;stroke-miterlimit:4;stroke-dasharray:none;stroke-opacity:1" />
      <rect
         y="145.24522"
         x="315.1676"
         height="92.934036"
         width="107.07617"
         id="rect4238"
         style="opacity:1;fill:#c8b7b7;fill-opacity:1;stroke:none;stroke-width:2.5;stroke-miterlimit:4;stroke-dasharray:none;stroke-opacity:1" />
      <rect
         y="147.26552"
         x="430.32498"
         height="84.852814"
         width="34.345188"
         id="rect4240"
         style="opacity:1;fill:#c8b7b7;fill-opacity:1;stroke:none;stroke-width:2.5;stroke-miterlimit:4;stroke-dasharray:none;stroke-opacity:1" />
      <rect
         y="147.26552"
         x="450.52805"
         height="119.198"
         width="52.527931"
         id="rect4242"
         style="opacity:1;fill:#c8b7b7;fill-opacity:1;stroke:none;stroke-width:2.5;stroke-miterlimit:4;stroke-dasharray:none;stroke-opacity:1" />
      <rect
         y="175.54979"
         x="511.13718"
         height="90.913727"
         width="129.29953"
         id="rect4244"
         style="opacity:1;fill:#c8b7b7;fill-opacity:1;stroke:none;stroke-width:2.5;stroke-miterlimit:4;stroke-dasharray:none;stroke-opacity:1" />
      <rect
         y="270.50412"
         x="602.0509"
         height="82.832512"
         width="139.40105"
         id="rect4246"
         style="opacity:1;fill:#c8b7b7;fill-opacity:1;stroke:none;stroke-width:2.5;stroke-miterlimit:4;stroke-dasharray:none;stroke-opacity:1" />
      <rect
         y="92.717285"
         x="646.49768"
         height="173.74623"
         width="101.01525"
         id="rect4248"
         style="opacity:1;fill:#c8b7b7;fill-opacity:1;stroke:none;stroke-width:2.5;stroke-miterlimit:4;stroke-dasharray:none;stroke-opacity:1" />
      <rect
         y="1.8035583"
         x="-4.024221e-007"
         height="115.15739"
         width="98.994949"
         id="rect4250"
         style="opacity:1;fill:#c8b7b7;fill-opacity:1;stroke:none;stroke-width:2.5;stroke-miterlimit:4;stroke-dasharray:none;stroke-opacity:1" />
      <rect
         y="1.8035581"
         x="103.03556"
         height="113.13708"
         width="28.284271"
         id="rect4252"
         style="opacity:1;fill:#c8b7b7;fill-opacity:1;stroke:none;stroke-width:2.5;stroke-miterlimit:4;stroke-dasharray:none;stroke-opacity:1" />
      <rect
         y="1.8035581"
         x="123.23861"
         height="151.52287"
         width="72.73098"
         id="rect4254"
         style="opacity:1;fill:#c8b7b7;fill-opacity:1;stroke:none;stroke-width:2.5;stroke-miterlimit:4;stroke-dasharray:none;stroke-opacity:1" />
      <rect
         y="62.412712"
         x="200.01021"
         height="88.893425"
         width="109.09647"
         id="rect4256"
         style="opacity:1;fill:#c8b7b7;fill-opacity:1;stroke:none;stroke-width:2.5;stroke-miterlimit:4;stroke-dasharray:none;stroke-opacity:1" />
      <rect
         y="62.412712"
         x="305.06607"
         height="80.81221"
         width="72.73098"
         id="rect4258"
         style="opacity:1;fill:#c8b7b7;fill-opacity:1;stroke:none;stroke-width:2.5;stroke-miterlimit:4;stroke-dasharray:none;stroke-opacity:1" />
      <rect
         y="70.493935"
         x="381.83765"
         height="72.73098"
         width="109.09647"
         id="rect4260"
         style="opacity:1;fill:#c8b7b7;fill-opacity:1;stroke:none;stroke-width:2.5;stroke-miterlimit:4;stroke-dasharray:none;stroke-opacity:1" />
      <rect
         y="70.493935"
         x="494.97476"
         height="74.751289"
         width="20.203051"
         id="rect4262"
         style="opacity:1;fill:#c8b7b7;fill-opacity:1;stroke:none;stroke-width:2.5;stroke-miterlimit:4;stroke-dasharray:none;stroke-opacity:1" />
      <rect
         y="70.493935"
         x="505.07626"
         height="101.01525"
         width="137.38075"
         id="rect4264"
         style="opacity:1;fill:#c8b7b7;fill-opacity:1;stroke:none;stroke-width:2.5;stroke-miterlimit:4;stroke-dasharray:none;stroke-opacity:1" />
      <rect
         y="-0.21674697"
         x="648.51794"
         height="88.893425"
         width="96.974648"
         id="rect4266"
         style="opacity:1;fill:#c8b7b7;fill-opacity:1;stroke:none;stroke-width:2.5;stroke-miterlimit:4;stroke-dasharray:none;stroke-opacity:1" />
      <rect
         y="1.8035581"
         x="593.96973"
         height="64.649765"
         width="64.649765"
         id="rect4268"
         style="opacity:1;fill:#c8b7b7;fill-opacity:1;stroke:none;stroke-width:2.5;stroke-miterlimit:4;stroke-dasharray:none;stroke-opacity:1" />
      <rect
         y="1.8035581"
         x="456.58896"
         height="66.670067"
         width="135.36044"
         id="rect4270"
         style="opacity:1;fill:#c8b7b7;fill-opacity:1;stroke:none;stroke-width:2.5;stroke-miterlimit:4;stroke-dasharray:none;stroke-opacity:1" />
      <rect
         y="-0.21674697"
         x="347.49246"
         height="58.588848"
         width="105.05586"
         id="rect4272"
         style="opacity:1;fill:#c8b7b7;fill-opacity:1;stroke:none;stroke-width:2.5;stroke-miterlimit:4;stroke-dasharray:none;stroke-opacity:1" />
      <rect
         y="52.311184"
         x="383.85797"
         height="14.142136"
         width="66.670067"
         id="rect4274"
         style="opacity:1;fill:#c8b7b7;fill-opacity:1;stroke:none;stroke-width:2.5;stroke-miterlimit:4;stroke-dasharray:none;stroke-opacity:1" />
      <rect
         y="1.8035581"
         x="200.01021"
         height="56.568542"
         width="143.44167"
         id="rect4276"
         style="opacity:1;fill:#c8b7b7;fill-opacity:1;stroke:none;stroke-width:2.5;stroke-miterlimit:4;stroke-dasharray:none;stroke-opacity:1" />
      <g
         id="text4755"
         style="font-style:normal;font-weight:normal;font-size:66.51023102px;line-height:125%;font-family:sans-serif;letter-spacing:0px;word-spacing:0px;fill:#000000;fill-opacity:1;stroke:none;stroke-width:1px;stroke-linecap:butt;stroke-linejoin:miter;stroke-opacity:1"
         transform="matrix(0.92689056,0,0,1.517897,-78.605583,-105.16287)">
        <path
           inkscape:connector-curvature="0"
           id="path4791"
           style="font-style:normal;font-variant:normal;font-weight:normal;font-stretch:normal;font-size:79.81227875px;font-family:Avocado;-inkscape-font-specification:Avocado"
           d="m 265.27063,133.86188 q -0.71831,2.39437 -1.75587,5.8263 -0.95774,3.35211 -2.23474,7.26291 -1.19718,3.83099 -2.6338,7.98123 -1.35681,4.07043 -2.87325,7.8216 1.03756,0.0798 2.23475,-0.23943 1.19718,-0.31925 2.55399,-0.87794 0.39906,-0.31925 0.6385,-0.55868 0.31925,-0.23944 0.6385,-0.47888 3.03286,-2.23474 4.62911,-5.74648 1.67606,-3.51174 2.07512,-7.26292 0.39906,-3.83099 -0.47888,-7.42254 -0.79812,-3.67137 -2.79343,-6.30517 z m -10.4554,31.2066 q -1.99531,4.5493 -4.07043,7.98123 -1.99531,3.35211 -4.07043,4.5493 l -6.86385,3.9108 q -0.95775,0.55869 -1.9155,0.6385 -0.87793,0.0798 -1.75587,-0.55869 -2.15493,-1.59624 -2.79343,-5.34742 -0.6385,-3.83099 -0.0798,-8.69954 0.55869,-4.86855 2.23474,-10.3756 1.67606,-5.50704 4.15024,-10.53522 2.47418,-5.02817 5.58686,-9.0986 3.11268,-4.07042 6.54461,-6.06573 l 6.86386,-3.99061 q 2.47418,-1.43662 4.94836,-1.59625 2.55399,-0.15962 5.10798,1.277 2.15493,1.19718 3.59156,3.43193 1.51643,2.15493 2.31455,4.86854 0.79812,2.63381 0.79812,5.66668 0.0798,3.03286 -0.63849,5.98592 -0.71831,2.87324 -2.23475,5.42723 -1.43662,2.554 -3.83099,4.38968 -1.03756,0.79812 -2.31455,1.67606 -1.19719,0.79812 -2.554,1.59624 l -6.94366,3.99062 -2.15494,1.19718 0.0798,-0.31925 z m -6.06574,1.99531 q -1.91549,-0.0798 -2.87324,-1.67606 -0.95775,-1.59625 -0.31925,-5.42724 l 6.86386,-3.99061 q -0.0798,0.47887 -0.15963,0.87794 0,0.39906 0,0.79812 1.277,-3.9108 2.47418,-7.66198 1.19719,-3.83099 2.07512,-6.94367 0.95775,-3.19249 1.59625,-5.42723 0.6385,-2.31456 0.95775,-3.19249 l 3.9108,-2.23475 q -0.6385,-0.55868 -1.51644,-1.03756 -1.59624,-0.95775 -3.2723,-1.19718 -1.67606,-0.23944 -3.2723,0.15962 -3.03287,2.79343 -5.66667,7.02348 -2.63381,4.15024 -4.70893,8.93898 -1.99531,4.78873 -3.2723,9.81691 -1.277,4.94836 -1.67606,9.33803 -0.31925,4.30987 0.39906,7.66198 0.71831,3.35212 2.71362,4.86855 0.0798,0.0798 0.15962,0.15963 0.0798,0 0.15963,0.0798 1.43662,-2.07512 2.79343,-4.86855 1.35681,-2.79343 2.6338,-6.06573 z" />
        <path
           inkscape:connector-curvature="0"
           id="path4793"
           style="font-style:normal;font-variant:normal;font-weight:normal;font-stretch:normal;font-size:79.81227875px;font-family:Avocado;-inkscape-font-specification:Avocado"
           d="m 287.63803,144.63654 q 3.43192,-2.554 5.98592,-5.50705 2.6338,-2.95305 4.38967,-7.26292 0.23944,-0.55868 0.39906,-1.27699 0.15963,-0.71831 0.15963,-1.43663 0.0798,-0.79812 -0.0798,-1.3568 -0.0798,-0.6385 -0.55868,-0.95775 -3.19249,3.35211 -5.8263,8.06104 -2.55399,4.70892 -4.46948,9.7371 z m 12.84977,31.8451 0.39906,-0.23944 q -0.0798,0.0798 -0.15962,0.0798 0,0 -0.0798,0.0798 l -7.18311,3.99062 q -0.95775,0.55868 -1.11737,-1.03756 -0.0798,-1.59625 0.23944,-4.38968 0.31925,-2.79343 0.79812,-6.22535 0.55869,-3.51175 0.95775,-6.78405 0.47887,-3.2723 0.55868,-5.82629 0.0798,-2.554 -0.55868,-3.51175 -0.55869,-0.79812 -1.11738,-1.19718 -2.15493,2.87324 -4.15023,6.86386 -1.99531,3.9108 -3.67137,7.74179 -1.59624,3.75117 -2.71362,6.78404 -1.11737,2.95306 -1.35681,3.83099 -0.15962,0.6385 -0.31924,0.6385 l -7.26292,3.99061 q -0.15963,0.0798 -0.0798,-0.87793 0,-0.95775 0.15962,-2.47418 0.15963,-1.51644 0.39906,-3.35212 0.15963,-1.91549 0.39906,-3.59155 0.23944,-1.75587 0.47888,-3.03287 0.15962,-1.35681 0.23943,-1.83568 0.47888,-2.55399 1.35681,-5.90611 0.95775,-3.35211 2.23475,-7.02348 1.35681,-3.75118 3.03286,-7.50235 1.67606,-3.75118 3.67137,-7.18311 2.07512,-3.43193 4.30986,-6.22536 2.31456,-2.87324 4.86855,-4.62911 l 0.31925,-0.23944 7.1831,-3.99061 q 1.59625,-0.87793 2.39437,-0.55869 0.79813,0.31925 1.03756,1.277 0.23944,0.87794 0,2.07512 -0.15962,1.11737 -0.47887,1.9155 -1.19719,2.87324 -2.71362,5.26761 -1.51643,2.31455 -3.43193,4.23005 -1.91549,1.91549 -4.23005,3.51174 -2.23474,1.59624 -4.86855,3.11268 l -2.71361,1.51643 q -1.59625,3.99061 -2.71362,7.74179 -1.03756,3.67136 -1.67606,6.70423 1.67606,-3.03287 3.43193,-5.34742 1.83568,-2.39437 3.51174,-3.2723 l 7.34273,-3.99062 q 1.19718,-0.6385 2.31455,-0.39906 1.11738,0.15962 2.07512,1.59625 0.55869,0.95774 0.47888,3.43192 -0.0798,2.47418 -0.47888,5.66668 -0.39906,3.19249 -0.95774,6.62441 -0.47888,3.43193 -0.79813,6.22536 -0.31925,2.79343 -0.31925,4.5493 0.0798,1.67606 0.95775,1.43662 l 0,-0.23943 z" />
        <path
           inkscape:connector-curvature="0"
           id="path4795"
           style="font-style:normal;font-variant:normal;font-weight:normal;font-stretch:normal;font-size:79.81227875px;font-family:Avocado;-inkscape-font-specification:Avocado"
           d="m 322.1506,156.20932 q -0.79812,-3.03287 -2.79343,-4.46949 -1.9155,-1.51643 -4.23005,-1.43662 -0.15963,0.15962 -0.23944,0.39906 -0.0798,0.23944 -0.23943,0.39906 -1.19719,2.07512 -2.23475,5.42724 -1.03756,3.35211 -1.277,6.86385 -0.23943,3.51174 0.55869,6.62442 0.87794,3.11268 3.51174,4.78874 0.87794,0.6385 1.9155,0.6385 2.39436,-2.554 4.78873,-6.14555 2.47418,-3.59155 4.62911,-7.34273 2.15494,-3.75118 3.91081,-7.1831 1.75587,-3.43193 2.87324,-5.66668 0.39906,-0.95774 0.6385,-1.51643 0.31925,-0.6385 0.39906,-0.71831 l 6.86385,-4.15024 q 0,0.0798 -0.0798,0.15963 -0.15962,0.39906 -0.39906,0.95774 -0.23944,0.47888 -0.55869,1.11738 -0.63849,1.3568 -1.43662,3.11267 -0.71831,1.67606 -1.51643,3.35212 -0.71831,1.67606 -1.277,3.03287 -0.55868,1.27699 -0.71831,1.67606 -0.39906,1.3568 -1.27699,3.35211 -0.79813,1.99531 -1.59625,4.30986 -0.79812,2.23475 -1.35681,4.5493 -0.55868,2.31456 -0.47887,4.23005 0.15962,1.83569 1.11737,3.03287 1.03756,1.19719 3.35212,1.277 l -6.94367,4.07042 q -1.99531,0 -3.03287,-0.87793 -0.95775,-0.87794 -1.277,-2.23475 -0.31924,-1.43662 -0.0798,-3.19249 0.31925,-1.83568 0.87794,-3.83099 -2.15493,2.554 -4.23005,3.75118 l -6.94367,4.15024 q -1.35681,0.87793 -2.71362,1.03756 -1.277,0.15962 -2.39437,-0.55869 -2.55399,-1.59624 -3.43193,-4.70892 -0.87793,-3.11268 -0.63849,-6.62442 0.23943,-3.51174 1.19718,-6.86386 1.03756,-3.35211 2.23474,-5.50704 1.35681,-2.39437 3.59156,-3.75118 l 6.86385,-4.15024 q 1.51644,-0.95775 3.19249,-1.11737 1.75587,-0.15963 3.27231,0.39906 1.51643,0.55869 2.6338,1.9155 1.19719,1.27699 1.75587,3.43192 l -6.78404,3.99062 z" />
        <path
           inkscape:connector-curvature="0"
           id="path4797"
           style="font-style:normal;font-variant:normal;font-weight:normal;font-stretch:normal;font-size:79.81227875px;font-family:Avocado;-inkscape-font-specification:Avocado"
           d="m 342.55136,158.76331 q -0.71831,-1.35681 0,-2.79343 0.71831,-1.51643 2.07512,-2.6338 l 6.30517,-4.78874 q 1.03756,-0.79812 2.15493,-1.19719 1.11738,-0.39906 2.07512,-0.15962 1.03756,0.15962 1.67606,1.03756 0.71831,0.87793 0.79812,2.6338 0.15963,2.47419 -0.39906,5.10799 -0.55868,2.63381 -1.35681,5.42724 1.59625,-2.39437 3.35212,-4.62912 1.83568,-2.31455 3.35212,-3.43192 l 6.38498,-4.78874 q 0.95775,-0.71831 1.67606,-0.71831 0.79812,-0.0798 1.19718,0.87793 0.39906,0.87794 0.39906,2.95306 0.0798,1.9953 -0.39906,5.50704 -0.15962,0.87794 -0.6385,2.87325 -0.47887,1.91549 -1.03756,4.30986 -0.55868,2.39437 -1.03756,4.94836 -0.39906,2.47418 -0.39906,4.62911 0,2.15493 0.6385,3.59156 0.71831,1.3568 2.31456,1.43662 l -6.30517,4.70892 q -1.67606,-0.0798 -2.31456,-1.43662 -0.6385,-1.35681 -0.71831,-3.43193 0,-2.15493 0.39906,-4.62911 0.47887,-2.55399 1.03756,-4.86855 0.55869,-2.39437 1.03756,-4.30986 0.55869,-1.99531 0.6385,-2.87324 0.6385,-4.30987 0.47887,-6.4648 -0.15962,-2.15493 -0.87793,-2.71362 -1.35681,1.83569 -2.71362,3.75118 -1.35681,1.83568 -2.31456,3.35212 -0.79812,1.27699 -1.9953,3.83099 -1.19719,2.47418 -2.39437,5.02817 -1.19719,2.55399 -2.15493,4.5493 -0.87794,1.99531 -1.19719,2.23474 l -6.38498,4.78874 q -0.15962,0.0798 -0.0798,-0.6385 l 0.31925,-1.35681 q 0.63849,-2.6338 1.51643,-5.50704 0.95775,-2.95306 1.75587,-5.8263 0.79812,-2.95305 1.35681,-5.8263 0.55868,-2.87324 0.47887,-5.50704 -0.0798,-1.9155 -0.87793,-2.71362 -0.71831,-0.87794 -1.83568,-1.03756 -0.23944,1.11737 0.31924,2.07512 l -6.30517,4.62911 z" />
        <path
           inkscape:connector-curvature="0"
           id="path4799"
           style="font-style:normal;font-variant:normal;font-weight:normal;font-stretch:normal;font-size:79.81227875px;font-family:Avocado;-inkscape-font-specification:Avocado"
           d="m 394.95436,130.90882 q -1.35681,4.23006 -2.63381,8.61973 -1.19718,4.30986 -2.31456,8.85916 2.15494,0.39907 4.30987,0.71831 2.15493,0.31925 4.23005,0.47888 2.15493,0.0798 4.07042,-0.15963 1.9155,-0.31925 3.51174,-1.11737 l -6.94366,3.99062 q -2.07512,1.19718 -4.78874,1.27699 -2.71362,0.0798 -5.66667,-0.31925 -0.87794,3.59156 -1.83568,7.1033 -0.95775,3.43192 -1.83569,6.78404 -0.31925,1.03756 -0.6385,2.71362 -0.23943,1.59624 -0.47887,3.19249 -0.23944,1.59624 -0.47887,2.79343 -0.15963,1.11737 -0.31925,1.19718 l -6.94367,3.99062 q -0.15962,0.0798 -0.23944,-1.277 -0.0798,-1.35681 0,-4.94836 0,-0.6385 -0.23943,-2.63381 -0.23944,-2.07512 -0.55869,-4.70892 -0.31925,-2.63381 -0.71831,-5.50705 -0.31925,-2.87324 -0.6385,-5.26761 -0.23943,-2.47418 -0.39906,-4.07043 -0.15962,-1.59624 0,-1.67605 l 6.94367,-3.99062 q 0.87793,0 1.83568,0.0798 1.03756,0.0798 2.15493,0.23943 1.75587,-6.5446 3.59156,-12.3709 l 7.02348,-3.99062 z m -14.36621,20.99063 q 0.15962,1.43663 0.39906,3.1925 0.23943,1.67605 0.39906,3.51174 0.39906,-1.59625 0.79812,-3.11268 0.39906,-1.51644 0.79812,-3.11268 l -2.39436,-0.47888 z" />
        <path
           inkscape:connector-curvature="0"
           id="path4801"
           style="font-style:normal;font-variant:normal;font-weight:normal;font-stretch:normal;font-size:79.81227875px;font-family:Avocado;-inkscape-font-specification:Avocado"
           d="m 418.95416,156.20932 q -0.79813,-3.03287 -2.79343,-4.46949 -1.9155,-1.51643 -4.23005,-1.43662 -0.15963,0.15962 -0.23944,0.39906 -0.0798,0.23944 -0.23944,0.39906 -1.19718,2.07512 -2.23474,5.42724 -1.03756,3.35211 -1.277,6.86385 -0.23943,3.51174 0.55869,6.62442 0.87793,3.11268 3.51174,4.78874 0.87793,0.6385 1.91549,0.6385 2.39437,-2.554 4.78874,-6.14555 2.47418,-3.59155 4.62911,-7.34273 2.15493,-3.75118 3.9108,-7.1831 1.75587,-3.43193 2.87325,-5.66668 0.39906,-0.95774 0.63849,-1.51643 0.31925,-0.6385 0.39907,-0.71831 l 6.86385,-4.15024 q 0,0.0798 -0.0798,0.15963 -0.15962,0.39906 -0.39906,0.95774 -0.23944,0.47888 -0.55869,1.11738 -0.6385,1.3568 -1.43662,3.11267 -0.71831,1.67606 -1.51643,3.35212 -0.71831,1.67606 -1.277,3.03287 -0.55868,1.27699 -0.71831,1.67606 -0.39906,1.3568 -1.277,3.35211 -0.79812,1.99531 -1.59624,4.30986 -0.79812,2.23475 -1.35681,4.5493 -0.55869,2.31456 -0.47887,4.23005 0.15962,1.83569 1.11737,3.03287 1.03756,1.19719 3.35211,1.277 l -6.94366,4.07042 q -1.99531,0 -3.03287,-0.87793 -0.95775,-0.87794 -1.277,-2.23475 -0.31925,-1.43662 -0.0798,-3.19249 0.31925,-1.83568 0.87794,-3.83099 -2.15494,2.554 -4.23005,3.75118 l -6.94367,4.15024 q -1.35681,0.87793 -2.71362,1.03756 -1.277,0.15962 -2.39437,-0.55869 -2.55399,-1.59624 -3.43193,-4.70892 -0.87793,-3.11268 -0.6385,-6.62442 0.23944,-3.51174 1.19719,-6.86386 1.03756,-3.35211 2.23474,-5.50704 1.35681,-2.39437 3.59156,-3.75118 l 6.86385,-4.15024 q 1.51643,-0.95775 3.19249,-1.11737 1.75587,-0.15963 3.27231,0.39906 1.51643,0.55869 2.6338,1.9155 1.19719,1.27699 1.75587,3.43192 l -6.78404,3.99062 z" />
        <path
           inkscape:connector-curvature="0"
           id="path4803"
           style="font-style:normal;font-variant:normal;font-weight:normal;font-stretch:normal;font-size:79.81227875px;font-family:Avocado;-inkscape-font-specification:Avocado"
           d="m 469.52396,154.05439 q -1.3568,-1.277 -3.35211,-2.07512 -1.9155,-0.79813 -4.15024,-1.11738 -2.23474,-0.31924 -4.5493,-0.15962 -2.31456,0.15962 -4.46949,0.79812 -0.87793,1.03756 -1.51643,2.23475 -1.83568,3.59155 -1.9155,5.58686 0,1.9953 1.11738,2.95305 1.19718,0.87794 3.2723,0.95775 2.07512,0 4.5493,-0.31925 2.47418,-0.31925 4.94836,-0.6385 2.55399,-0.39906 4.62911,-0.31925 2.15493,0 3.51174,0.79812 1.43662,0.71831 1.51644,2.71362 0.23943,3.83099 -1.11738,6.22536 -1.27699,2.39437 -3.59155,3.75118 l -6.86385,3.99061 q -2.71362,1.59625 -6.30517,1.67606 -3.59156,0.15962 -7.02348,-0.95775 -3.43193,-1.11737 -6.22536,-3.2723 -2.79343,-2.15493 -3.99062,-5.1878 l 6.78405,-3.99061 q 0.95774,2.47418 3.11268,4.46948 2.15493,1.9155 4.86855,3.19249 2.79343,1.19719 5.74648,1.67606 3.03287,0.39906 5.8263,-0.0798 0.95774,-1.35681 1.43662,-3.19249 0.55868,-1.83568 0.39906,-4.23005 -0.15963,-1.99531 -1.51644,-2.71362 -1.3568,-0.79812 -3.51174,-0.79812 -2.07511,-0.0798 -4.62911,0.31925 -2.55399,0.31925 -5.02817,0.63849 -2.39437,0.31925 -4.46949,0.31925 -2.07512,-0.0798 -3.2723,-0.95774 -1.11737,-0.95775 -1.11737,-2.95306 0,-1.9953 1.75587,-5.58686 0.71831,-1.43662 1.83568,-2.55399 1.19718,-1.11737 2.6338,-1.99531 l 6.94367,-3.99061 q 2.31456,-1.277 5.10799,-1.9155 2.87324,-0.63849 5.66667,-0.55868 2.87324,0.0798 5.42723,0.95775 2.554,0.79812 4.30987,2.39436 l -6.78405,3.91081 z" />
        <path
           inkscape:connector-curvature="0"
           id="path4805"
           style="font-style:normal;font-variant:normal;font-weight:normal;font-stretch:normal;font-size:79.81227875px;font-family:Avocado;-inkscape-font-specification:Avocado"
           d="m 476.98018,155.25157 q 0.15962,-1.19718 1.19718,-2.71362 1.03756,-1.59624 2.39437,-2.47418 l 6.94367,-4.78873 q 1.27699,-0.87794 2.55399,-0.87794 1.277,-0.0798 2.23474,1.51643 0.71831,1.11738 0.6385,3.03287 0,1.91549 -0.39906,4.15024 -0.39906,2.15493 -1.11737,4.5493 -0.6385,2.31455 -1.277,4.30986 0.95775,-1.51643 2.39437,-3.19249 0.15963,-0.23944 0.79812,-0.87793 0.6385,-0.71832 1.51644,-1.51644 0.87793,-0.87793 1.75587,-1.67606 0.95774,-0.87793 1.75587,-1.43662 l 6.86385,-4.86855 q 0.95775,-0.55868 1.35681,-0.55868 0.39906,0 0.31925,0.95775 0,0.87793 -0.39906,2.47418 -0.31925,1.51643 -0.87794,3.59155 -0.55868,1.99531 -1.27699,4.15024 1.43662,-2.07512 2.79343,-3.67137 1.35681,-1.67606 2.47418,-2.47418 l 6.86385,-4.78874 q 1.277,-0.87793 1.83569,-0.15962 0.6385,0.71831 0.39906,3.75118 -0.15963,1.75587 -0.79812,3.9108 -0.6385,2.07512 -1.35681,4.38967 -0.71831,2.31456 -1.35681,4.70893 -0.6385,2.31455 -0.79812,4.46949 -0.15963,2.07512 0.31924,3.83099 0.55869,1.75587 2.15494,2.87324 l -6.94367,4.86855 q -1.59625,-1.11738 -2.07512,-2.87325 -0.47888,-1.75587 -0.31925,-3.83098 0.15962,-2.15494 0.79812,-4.46949 0.6385,-2.39437 1.35681,-4.70893 0.71831,-2.31455 1.35681,-4.46948 0.6385,-2.15494 0.79812,-3.83099 0.15963,-2.23475 -0.0798,-3.03287 -1.43662,2.07512 -2.87324,4.38968 -1.43662,2.23474 -2.63381,4.15023 -1.11737,1.9155 -1.91549,3.27231 -0.79812,1.35681 -0.87794,1.51643 -0.31925,0.6385 -0.87793,2.15493 -0.47888,1.51644 -1.11737,3.11268 -0.55869,1.51643 -1.03756,2.79343 -0.47888,1.19718 -0.71831,1.35681 l -6.86386,4.78874 q -0.15962,0.0798 -0.0798,-0.71831 0.0798,-0.79813 0.47887,-2.87325 0.15963,-0.87793 0.71831,-2.71361 0.6385,-1.9155 1.35681,-4.23005 0.79812,-2.39437 1.59625,-5.02818 0.87793,-2.6338 1.59624,-5.02817 0.71831,-2.39437 1.11737,-4.30986 0.47888,-1.9155 0.39907,-2.79343 -0.23944,0.15962 -0.39907,0.31924 -0.0798,0.15963 -0.23943,0.23944 -3.59156,4.5493 -6.38499,9.33804 -2.71361,4.78873 -4.86854,9.97653 -1.11738,2.554 -1.43663,2.79343 l -6.94366,4.78874 q -0.23944,0.15962 0,-1.19719 0.31925,-1.43662 0.79812,-3.2723 0.47887,-1.83568 0.87793,-3.43193 0.47888,-1.67605 0.47888,-1.91549 0.31925,-1.67606 1.27699,-4.46949 0.95775,-2.79343 1.67606,-5.74648 0.79812,-3.03287 1.11737,-5.74649 0.31925,-2.71361 -0.55868,-4.15024 -0.55869,-0.87793 -1.35681,-1.27699 -0.15963,0.23944 -0.23944,0.47887 0,0.23944 -0.0798,0.39906 l -6.78404,4.78874 z" />
        <path
           inkscape:connector-curvature="0"
           id="path4807"
           style="font-style:normal;font-variant:normal;font-weight:normal;font-stretch:normal;font-size:79.81227875px;font-family:Avocado;-inkscape-font-specification:Avocado"
           d="m 535.18329,155.17176 q -0.15962,0 -0.31925,0 -0.15962,-0.0798 -0.31925,-0.0798 -1.35681,1.3568 -2.55399,3.03286 -1.11737,1.59625 -2.07512,3.27231 -0.87793,1.59624 -1.51643,3.11267 -0.55869,1.51644 -0.71831,2.63381 -0.15963,1.11737 -0.39906,2.6338 -0.23944,1.51644 -0.15963,2.95306 0.15963,1.43662 0.79812,2.55399 0.71831,1.03756 2.39437,1.277 1.11737,0.15962 2.07512,0.23944 1.03756,0 1.9155,-0.15963 1.51643,-1.91549 2.39436,-4.30986 0.95775,-2.39437 1.51644,-4.94836 0.55868,-2.554 0.79812,-5.02818 0.31925,-2.47418 0.47887,-4.46948 0.0798,-0.87794 0.0798,-2.31456 0.0798,-1.43662 -0.0798,-2.87324 l -4.30986,2.47418 z m 3.11268,-6.14555 q -0.15962,0.55869 -0.23944,1.03756 0,0.47888 -0.0798,0.95775 l -6.86385,3.99061 q 0.15962,-1.59624 0.71831,-3.59155 0.55868,-1.99531 2.15493,-2.87324 l 6.94367,-3.99062 q 0.63849,-0.39906 1.75587,-0.55868 1.67605,-0.15963 2.47418,1.03756 0.87793,1.11737 1.11737,2.71362 0.31925,1.59624 0.23944,3.35211 0,1.75587 -0.0798,2.79343 -0.15962,2.39437 -0.55868,5.58686 -0.39906,3.11268 -1.277,6.14555 -0.87793,3.03286 -2.47418,5.66667 -1.51643,2.6338 -3.99061,4.07042 l -6.94367,3.99062 q -1.51644,0.87793 -3.43193,1.27699 -1.9155,0.31925 -4.38968,-0.0798 -1.59624,-0.23943 -2.31455,-1.27699 -0.6385,-1.11738 -0.79812,-2.554 -0.15963,-1.43662 0,-2.95305 0.23943,-1.51643 0.39906,-2.63381 0.23943,-1.51643 1.19718,-3.67136 0.95775,-2.15493 2.39437,-4.30986 1.51643,-2.15494 3.2723,-4.07043 1.83569,-1.9155 3.67137,-2.95305 l 6.86385,-3.99062 q 0.31925,-0.15962 0.55869,-0.23944 0.31925,-0.15962 0.6385,-0.31924 -0.23944,-1.67606 -1.03756,-2.554 l 0.0798,0 z" />
        <path
           inkscape:connector-curvature="0"
           id="path4809"
           style="font-style:normal;font-variant:normal;font-weight:normal;font-stretch:normal;font-size:79.81227875px;font-family:Avocado;-inkscape-font-specification:Avocado"
           d="m 548.84989,157.16706 q 0,-1.11737 0.47887,-1.9953 0.47887,-0.95775 1.277,-1.43662 l 6.86385,-3.99062 q 0.87794,-0.47887 1.75587,-0.0798 0.95775,0.31925 1.75587,1.9155 0.23944,0.47887 0.31925,1.19718 0.15963,0.6385 0.31925,1.51643 0.15963,-0.15962 0.15963,-0.31925 0.0798,-0.15962 0.23943,-0.31925 0.71831,-0.87793 1.51644,-1.59624 0.79812,-0.79812 1.75587,-1.35681 l 6.94366,-3.99061 q 0.87794,-0.55869 1.9155,-0.79813 1.11737,-0.31925 2.23474,-0.15962 1.51644,0.15962 2.07512,1.59624 0.6385,1.43663 0.55869,3.59156 -0.0798,2.07512 -0.71831,4.62911 -0.55869,2.55399 -1.35681,4.94836 -0.71831,2.31456 -1.51643,4.23005 -0.71832,1.83568 -1.11738,2.63381 -1.35681,2.6338 -2.55399,4.94836 -1.11737,2.23474 -2.47418,3.03286 l -6.86386,3.99062 q -0.87793,0.47887 -1.83568,0.23943 -0.95775,-0.31924 -2.15493,-1.67605 -0.39906,1.67605 -0.79812,3.19249 -0.39906,1.59624 -0.79813,3.11268 -0.15962,0.95774 -0.31924,1.59624 -0.23944,1.11737 -0.71832,2.63381 -0.47887,1.59624 -0.95774,3.03286 -0.47888,1.51644 -0.87794,2.554 -0.31925,1.11737 -0.31925,1.11737 l -6.86385,4.07043 q -0.0798,0.0798 0.15962,-0.6385 0.15963,-0.6385 0.71831,-2.31456 0.39906,-1.11737 0.87794,-2.95305 0.39906,-1.75587 1.03756,-4.07043 0.87793,-3.67136 1.67605,-7.34273 0.87794,-3.59155 1.67606,-7.42254 0.55869,-2.87324 0.95775,-5.50705 0.39906,-2.71362 0.47887,-5.02817 0.15963,-2.39437 -0.0798,-4.15024 -0.15962,-1.83568 -0.6385,-2.95305 -0.23943,-0.55869 -0.6385,-1.03756 l -4.15023,1.3568 z m 16.60095,18.59627 q 0.39906,-0.79813 0.79812,-1.51644 0.39906,-0.79812 0.79813,-1.59624 0.39906,-0.79813 1.11737,-2.63381 0.79812,-1.91549 1.51643,-4.23005 0.79812,-2.39437 1.35681,-4.94836 0.55869,-2.55399 0.6385,-4.62911 0.0798,-2.15493 -0.55869,-3.59156 -0.55868,-1.43662 -2.07512,-1.59624 l -0.55868,0 q -3.35212,4.30986 -5.34743,9.25822 -1.9953,4.94836 -3.2723,10.21598 -0.39906,1.51643 -0.6385,3.03286 -0.23943,1.43662 -0.55868,2.95306 l 4.94836,-2.87325 q 0.87793,1.19719 1.83568,2.15494 z" />
        <path
           inkscape:connector-curvature="0"
           id="path4811"
           style="font-style:normal;font-variant:normal;font-weight:normal;font-stretch:normal;font-size:79.81227875px;font-family:Avocado;-inkscape-font-specification:Avocado"
           d="m 592.70174,144.63654 q 3.43193,-2.554 5.98592,-5.50705 2.63381,-2.95305 4.38968,-7.26292 0.23943,-0.55868 0.39906,-1.27699 0.15962,-0.71831 0.15962,-1.43663 0.0798,-0.79812 -0.0798,-1.3568 -0.0798,-0.6385 -0.55868,-0.95775 -3.1925,3.35211 -5.8263,8.06104 -2.55399,4.70892 -4.46949,9.7371 z m 12.84978,31.8451 0.39906,-0.23944 q -0.0798,0.0798 -0.15962,0.0798 0,0 -0.0798,0.0798 l -7.1831,3.99062 q -0.95775,0.55868 -1.11737,-1.03756 -0.0798,-1.59625 0.23943,-4.38968 0.31925,-2.79343 0.79813,-6.22535 0.55868,-3.51175 0.95774,-6.78405 0.47888,-3.2723 0.55869,-5.82629 0.0798,-2.554 -0.55869,-3.51175 -0.55868,-0.79812 -1.11737,-1.19718 -2.15493,2.87324 -4.15024,6.86386 -1.9953,3.9108 -3.67136,7.74179 -1.59625,3.75117 -2.71362,6.78404 -1.11737,2.95306 -1.35681,3.83099 -0.15962,0.6385 -0.31925,0.6385 l -7.26291,3.99061 q -0.15963,0.0798 -0.0798,-0.87793 0,-0.95775 0.15963,-2.47418 0.15962,-1.51644 0.39906,-3.35212 0.15962,-1.91549 0.39906,-3.59155 0.23944,-1.75587 0.47887,-3.03287 0.15963,-1.35681 0.23944,-1.83568 0.47887,-2.55399 1.35681,-5.90611 0.95775,-3.35211 2.23474,-7.02348 1.35681,-3.75118 3.03287,-7.50235 1.67606,-3.75118 3.67136,-7.18311 2.07512,-3.43193 4.30987,-6.22536 2.31455,-2.87324 4.86855,-4.62911 l 0.31925,-0.23944 7.1831,-3.99061 q 1.59625,-0.87793 2.39437,-0.55869 0.79812,0.31925 1.03756,1.277 0.23944,0.87794 0,2.07512 -0.15963,1.11737 -0.47887,1.9155 -1.19719,2.87324 -2.71362,5.26761 -1.51644,2.31455 -3.43193,4.23005 -1.91549,1.91549 -4.23005,3.51174 -2.23474,1.59624 -4.86855,3.11268 l -2.71362,1.51643 q -1.59624,3.99061 -2.71361,7.74179 -1.03756,3.67136 -1.67606,6.70423 1.67606,-3.03287 3.43193,-5.34742 1.83568,-2.39437 3.51174,-3.2723 l 7.34273,-3.99062 q 1.19718,-0.6385 2.31455,-0.39906 1.11737,0.15962 2.07512,1.59625 0.55869,0.95774 0.47887,3.43192 -0.0798,2.47418 -0.47887,5.66668 -0.39906,3.19249 -0.95775,6.62441 -0.47887,3.43193 -0.79812,6.22536 -0.31925,2.79343 -0.31925,4.5493 0.0798,1.67606 0.95775,1.43662 l 0,-0.23943 z" />
        <path
           inkscape:connector-curvature="0"
           id="path4813"
           style="font-style:normal;font-variant:normal;font-weight:normal;font-stretch:normal;font-size:79.81227875px;font-family:Avocado;-inkscape-font-specification:Avocado"
           d="m 624.66034,155.17176 q -0.15962,0 -0.31925,0 -0.15962,-0.0798 -0.31925,-0.0798 -1.3568,1.3568 -2.55399,3.03286 -1.11737,1.59625 -2.07512,3.27231 -0.87793,1.59624 -1.51643,3.11267 -0.55869,1.51644 -0.71831,2.63381 -0.15963,1.11737 -0.39906,2.6338 -0.23944,1.51644 -0.15963,2.95306 0.15963,1.43662 0.79812,2.55399 0.71832,1.03756 2.39437,1.277 1.11738,0.15962 2.07512,0.23944 1.03756,0 1.9155,-0.15963 1.51643,-1.91549 2.39437,-4.30986 0.95774,-2.39437 1.51643,-4.94836 0.55868,-2.554 0.79812,-5.02818 0.31925,-2.47418 0.47888,-4.46948 0.0798,-0.87794 0.0798,-2.31456 0.0798,-1.43662 -0.0798,-2.87324 l -4.30987,2.47418 z m 3.11268,-6.14555 q -0.15962,0.55869 -0.23944,1.03756 0,0.47888 -0.0798,0.95775 l -6.86385,3.99061 q 0.15962,-1.59624 0.71831,-3.59155 0.55868,-1.99531 2.15493,-2.87324 l 6.94367,-3.99062 q 0.63849,-0.39906 1.75587,-0.55868 1.67605,-0.15963 2.47418,1.03756 0.87793,1.11737 1.11737,2.71362 0.31925,1.59624 0.23944,3.35211 0,1.75587 -0.0798,2.79343 -0.15962,2.39437 -0.55868,5.58686 -0.39906,3.11268 -1.277,6.14555 -0.87793,3.03286 -2.47418,5.66667 -1.51643,2.6338 -3.99061,4.07042 l -6.94367,3.99062 q -1.51643,0.87793 -3.43193,1.27699 -1.91549,0.31925 -4.38968,-0.0798 -1.59624,-0.23943 -2.31455,-1.27699 -0.6385,-1.11738 -0.79812,-2.554 -0.15963,-1.43662 0,-2.95305 0.23943,-1.51643 0.39906,-2.63381 0.23943,-1.51643 1.19718,-3.67136 0.95775,-2.15493 2.39437,-4.30986 1.51643,-2.15494 3.2723,-4.07043 1.83569,-1.9155 3.67137,-2.95305 l 6.86385,-3.99062 q 0.31925,-0.15962 0.55869,-0.23944 0.31925,-0.15962 0.6385,-0.31924 -0.23944,-1.67606 -1.03756,-2.554 l 0.0798,0 z" />
        <path
           inkscape:connector-curvature="0"
           id="path4815"
           style="font-style:normal;font-variant:normal;font-weight:normal;font-stretch:normal;font-size:79.81227875px;font-family:Avocado;-inkscape-font-specification:Avocado"
           d="m 655.40676,143.59898 q 0.79813,-1.43662 1.67606,-2.79343 0.95775,-1.43662 1.67606,-2.87324 0.79812,-1.43663 1.277,-2.95306 0.55868,-1.59624 0.71831,-3.35211 0.15962,-2.39437 -1.11737,-2.71362 -1.277,-0.39906 -3.11268,0.23943 -0.0798,0.0798 -0.0798,0.0798 -2.95305,2.95305 -5.10798,6.62442 -2.15493,3.67136 -3.67137,7.74179 -1.43662,4.07042 -2.23474,8.30047 -0.79812,4.23006 -1.03756,8.38029 -0.15962,1.75587 -0.0798,4.46949 0.0798,2.71362 0.6385,5.26761 0.55868,2.55399 1.75587,4.46949 1.19718,1.83568 3.2723,1.91549 0.55869,0 1.03756,0 0.47887,0 0.95775,-0.0798 1.59624,-1.83568 2.71361,-4.15024 1.19719,-2.31455 1.75587,-4.70892 0.6385,-2.47418 0.6385,-4.86855 0.0798,-2.47418 -0.6385,-4.46949 -0.39906,-1.27699 -1.43662,-2.47418 -0.95774,-1.277 -2.31455,-1.99531 l -3.43193,2.07512 q -1.67606,0.15963 -1.83568,-0.87793 -0.0798,-1.03756 0.87793,-1.67606 l 6.54461,-3.99061 q 0.47887,-0.31925 1.11737,-0.31925 1.03756,-0.0798 2.15493,0.31925 1.11737,0.39906 1.99531,1.19718 0.95775,0.79812 1.67606,1.83568 0.71831,0.95775 1.11737,1.99531 0.79812,2.39437 0.55868,5.42724 -0.15962,3.03286 -1.19718,5.98592 -1.03756,2.87324 -2.87324,5.42723 -1.75587,2.47418 -4.07043,3.9108 l -6.46479,3.99062 q -2.55399,1.51643 -5.34742,1.43662 -2.07512,-0.0798 -3.27231,-1.9155 -1.19718,-1.91549 -1.75587,-4.46948 -0.55868,-2.63381 -0.6385,-5.26761 -0.15962,-2.71362 -0.0798,-4.5493 0.23944,-4.07043 0.95775,-8.38029 0.71831,-4.38968 2.07512,-8.46011 1.43662,-4.15023 3.59155,-7.74179 2.15493,-3.67136 5.26761,-6.38498 0.47887,-0.39906 1.35681,-1.03756 0.95775,-0.71831 2.15493,-1.43662 l 6.4648,-3.99061 q 1.27699,-0.79813 2.6338,-1.35681 1.35681,-0.6385 2.39437,-0.6385 1.11737,-0.0798 1.75587,0.55869 0.6385,0.63849 0.55869,2.39436 -0.0798,1.67606 -0.6385,3.27231 -0.47888,1.51643 -1.277,2.95305 -0.79812,1.43662 -1.75587,2.87324 -0.87793,1.35681 -1.67606,2.79343 l -6.22536,3.99062 z" />
        <path
           inkscape:connector-curvature="0"
           id="path4817"
           style="font-style:normal;font-variant:normal;font-weight:normal;font-stretch:normal;font-size:79.81227875px;font-family:Avocado;-inkscape-font-specification:Avocado"
           d="m 678.96634,148.3079 q -2.55399,4.15024 -3.35211,8.69954 -0.79813,4.46949 -1.11738,9.25822 0,0.55869 -0.0798,2.31456 -0.0798,1.67606 0,3.51174 0.15963,1.83568 0.6385,3.2723 0.47887,1.35681 1.51643,1.19719 l -7.10329,3.99061 q -1.03756,0.15963 -1.51643,-1.19718 -0.47888,-1.43662 -0.6385,-3.27231 -0.15963,-1.83568 -0.0798,-3.51174 0.0798,-1.75587 0.0798,-2.31455 0.15962,-4.78874 1.03756,-9.25823 0.87793,-4.5493 3.43193,-8.69953 l 7.1831,-3.99062 z m 4.23005,-15.08452 q -0.95775,1.75587 -1.59624,3.59155 -0.6385,1.83569 -0.23944,3.67137 l -7.18311,3.99061 q -0.31924,-1.83568 0.23944,-3.67136 0.6385,-1.83568 1.59625,-3.59156 l 7.1831,-3.99061 z" />
        <path
           inkscape:connector-curvature="0"
           id="path4819"
           style="font-style:normal;font-variant:normal;font-weight:normal;font-stretch:normal;font-size:79.81227875px;font-family:Avocado;-inkscape-font-specification:Avocado"
           d="m 698.45301,156.20932 q -0.79812,-3.03287 -2.79343,-4.46949 -1.91549,-1.51643 -4.23005,-1.43662 -0.15962,0.15962 -0.23943,0.39906 -0.0798,0.23944 -0.23944,0.39906 -1.19719,2.07512 -2.23474,5.42724 -1.03756,3.35211 -1.277,6.86385 -0.23944,3.51174 0.55868,6.62442 0.87794,3.11268 3.51174,4.78874 0.87794,0.6385 1.9155,0.6385 2.39437,-2.554 4.78874,-6.14555 2.47418,-3.59155 4.62911,-7.34273 2.15493,-3.75118 3.9108,-7.1831 1.75587,-3.43193 2.87324,-5.66668 0.39906,-0.95774 0.6385,-1.51643 0.31925,-0.6385 0.39906,-0.71831 l 6.86386,-4.15024 q 0,0.0798 -0.0798,0.15963 -0.15963,0.39906 -0.39907,0.95774 -0.23943,0.47888 -0.55868,1.11738 -0.6385,1.3568 -1.43662,3.11267 -0.71831,1.67606 -1.51644,3.35212 -0.71831,1.67606 -1.27699,3.03287 -0.55869,1.27699 -0.71831,1.67606 -0.39906,1.3568 -1.277,3.35211 -0.79812,1.99531 -1.59625,4.30986 -0.79812,2.23475 -1.3568,4.5493 -0.55869,2.31456 -0.47888,4.23005 0.15963,1.83569 1.11737,3.03287 1.03756,1.19719 3.35212,1.277 l -6.94367,4.07042 q -1.99531,0 -3.03286,-0.87793 -0.95775,-0.87794 -1.277,-2.23475 -0.31925,-1.43662 -0.0798,-3.19249 0.31925,-1.83568 0.87793,-3.83099 -2.15493,2.554 -4.23005,3.75118 l -6.94367,4.15024 q -1.35681,0.87793 -2.71361,1.03756 -1.277,0.15962 -2.39437,-0.55869 -2.554,-1.59624 -3.43193,-4.70892 -0.87794,-3.11268 -0.6385,-6.62442 0.23944,-3.51174 1.19718,-6.86386 1.03756,-3.35211 2.23475,-5.50704 1.35681,-2.39437 3.59155,-3.75118 l 6.86386,-4.15024 q 1.51643,-0.95775 3.19249,-1.11737 1.75587,-0.15963 3.2723,0.39906 1.51643,0.55869 2.63381,1.9155 1.19718,1.27699 1.75587,3.43192 l -6.78405,3.99062 z" />
      </g>
      <g
         transform="translate(-150,251.42857)"
         id="g4875">
        <path
           style="opacity:0.35;fill:#800000;fill-opacity:1;stroke:none;stroke-width:2.5;stroke-miterlimit:4;stroke-dasharray:none;stroke-opacity:1"
           d="m 533.36052,499.80878 c -0.0251,0.35488 0.0607,129.39438 45.23071,174.84383 l 37.34288,37.57387 27.88949,42.37538 c 0,0 16.334,14.45211 41.97954,14.84913 29.03371,0.44947 38.8773,10.58187 26.35439,12.19035 -13.76218,1.76766 -31.03219,1.84668 -44.40667,4.59644 l -21.74309,4.47032 c -18.71265,3.84727 -52.13735,6.79426 -52.13735,6.79426 -34.70389,-18.48352 -25.61252,-25.04951 -25.61252,-25.04951 0.26905,-25.15364 -100.16236,1.92965 -175.29476,-26.34166 -25.92028,-9.75346 -52.62908,-15.42014 -86.28774,-57.42764 -37.35587,-46.62179 -46.55644,-38.14353 -70.29971,-97.96104 L 220.50253,520.4926 c -3.46795,-51.61713 8.18225,-75.32274 11.84636,-114.4532 6.6628,-71.15472 95.96909,-97.14945 146.4583,-97.14945 100.97842,0 164.40629,51.74148 154.55333,190.91883 z"
           id="path4837"
           inkscape:connector-curvature="0"
           sodipodi:nodetypes="ssccssssssssccsss" />
        <path
           style="opacity:0.35;fill:#800000;fill-opacity:1;stroke:none;stroke-width:2.5;stroke-miterlimit:4;stroke-dasharray:none;stroke-opacity:1"
           d="m 255.04864,629.3534 0.2364,5.02104 c 0.58674,12.46233 -29.99141,13.17922 -40.83684,3.13197 0,0 -11.24166,-14.68848 -24.62618,-19.5185 -13.38452,-4.83001 -23.9119,3.05559 -23.9119,-8.93909 -1e-5,-11.99467 7.05336,-8.9778 16.74185,-16.83827 9.68849,-7.86048 19.67941,-9.82916 33.44888,-15.21176 21.927,-8.57143 26.44495,6.30271 28.41914,17.53844 z"
           id="path4840"
           inkscape:connector-curvature="0"
           sodipodi:nodetypes="csssssssc" />
        <ellipse
           style="opacity:0.35;fill:#800000;fill-opacity:1;stroke:none;stroke-width:2.5;stroke-miterlimit:4;stroke-dasharray:none;stroke-opacity:1"
           id="path4845"
           cx="263.57144"
           cy="440.93365"
           rx="26.428572"
           ry="27.142857" />
        <ellipse
           ry="27.142857"
           rx="26.428572"
           cy="459.5051"
           cx="360.71429"
           id="ellipse4847"
           style="opacity:0.35;fill:#800000;fill-opacity:1;stroke:none;stroke-width:2.5;stroke-miterlimit:4;stroke-dasharray:none;stroke-opacity:1" />
        <ellipse
           style="opacity:0.35;fill:#ffffff;fill-opacity:1;stroke:none;stroke-width:2.5;stroke-miterlimit:4;stroke-dasharray:none;stroke-opacity:1"
           id="path4849"
           cx="255.71426"
           cy="431.64792"
           rx="7.1428571"
           ry="7.8571429" />
        <ellipse
           ry="7.8571429"
           rx="7.1428571"
           cy="453.07648"
           cx="351.42856"
           id="ellipse4851"
           style="opacity:0.35;fill:#ffffff;fill-opacity:1;stroke:none;stroke-width:2.5;stroke-miterlimit:4;stroke-dasharray:none;stroke-opacity:1" />
        <path
           style="opacity:0.35;fill:#800000;fill-opacity:1;stroke:none;stroke-width:2.5;stroke-miterlimit:4;stroke-dasharray:none;stroke-opacity:1"
           d="m 321.42857,531.64789 c 0,13.80712 -8.381,15.79652 -24.28572,12.85714 -15.45977,-2.85714 -35.71428,-1.90717 -35.71428,-15.71428 0,-13.80712 14.54023,-22.14286 30.71428,-22.14286 16.17406,0 29.28572,11.19288 29.28572,25 z"
           id="path4853"
           inkscape:connector-curvature="0"
           sodipodi:nodetypes="sssss" />
        <path
           style="opacity:0.35;fill:#800000;fill-opacity:1;stroke:none;stroke-width:2.5;stroke-miterlimit:4;stroke-dasharray:none;stroke-opacity:1"
           d="m 453.57141,634.14791 c 0,8.58014 -22.74981,13.49086 -30.55329,29.11368 -5.66997,11.35147 -17.08919,19.8149 -34.44671,19.8149 -17.35752,0 -32.35752,-18.47779 -43.73242,-24.10061 -11.3749,-5.62282 -28.41043,-1.24783 -28.41043,-9.82797 0,-8.58014 8.46409,-18.49085 19.839,-24.11367 11.3749,-5.62282 24.94633,-14.8149 42.30385,-14.8149 17.35752,0 62.35752,-10.09364 73.73242,-4.47082 11.3749,5.62282 1.26758,19.81925 1.26758,28.39939 z"
           id="path4856"
           inkscape:connector-curvature="0"
           sodipodi:nodetypes="sssssssss" />
        <g
           id="g4870"
           transform="translate(0,-22.857143)">
          <path
             sodipodi:nodetypes="sssss"
             inkscape:connector-curvature="0"
             id="path4861"
             d="m 385.71429,330.21937 c 0,16.17405 -14.22044,22.14285 -30,22.14285 -15.77956,0 -21.42856,-8.82595 -21.42856,-25 -10e-6,-16.17405 -4.351,-33.57143 11.42856,-33.57143 15.77957,0 40.00001,20.25452 40,36.42858 z"
             style="opacity:0.35;fill:#800000;fill-opacity:1;stroke:none;stroke-width:2.5;stroke-miterlimit:4;stroke-dasharray:none;stroke-opacity:1" />
          <path
             sodipodi:nodetypes="sssss"
             inkscape:connector-curvature="0"
             id="path4863"
             d="m 403.57144,331.64793 c 0,8.67877 -2.35532,16.42858 -11.42858,16.42858 -9.07325,0 -10.71429,-7.03553 -10.71428,-15.71429 -1e-5,-8.67876 1.64103,-15 10.71428,-15 9.07326,-10e-6 11.42858,5.60695 11.42858,14.28571 z"
             style="opacity:0.35;fill:#800000;fill-opacity:1;stroke:none;stroke-width:2.5;stroke-miterlimit:4;stroke-dasharray:none;stroke-opacity:1" />
          <path
             sodipodi:nodetypes="sssss"
             inkscape:connector-curvature="0"
             id="path4865"
             d="m 445.71429,331.64792 c 0,13.80712 -3.09063,22.14286 -15.71428,22.14286 -12.62366,0 -30.00001,-8.33574 -30.00001,-22.14286 0,-13.80712 21.66207,-26.42858 34.28572,-26.42857 12.62365,0 11.42857,12.62145 11.42857,26.42857 z"
             style="opacity:0.35;fill:#800000;fill-opacity:1;stroke:none;stroke-width:2.5;stroke-miterlimit:4;stroke-dasharray:none;stroke-opacity:1" />
        </g>
      </g>
    </g>
  </g>
</svg>
